<svg id="cleaning" xmlns="http://www.w3.org/2000/svg" width="60.245" height="60.066" viewBox="0 0 60.245 60.066">
  <g id="Group_3" data-name="Group 3">
    <g id="Group_2" data-name="Group 2">
      <path id="Path_2" data-name="Path 2" d="M69.79,42.046H68.106a8.109,8.109,0,0,0-3.4.748,5.855,5.855,0,0,1-4.884,0,8.012,8.012,0,0,0-1.936-.6l2.1-15.164H62.26a1.041,1.041,0,0,0,1.076-1v-4a1.041,1.041,0,0,0-1.076-1h-4.3v-3a.967.967,0,0,0-.315-.708L52.578,12.6V9.49l1.631-1.213,2.785,5.185,1.926-.895L55.927,7l1.331-.991h3.927a1.041,1.041,0,0,0,1.076-1V1a1.041,1.041,0,0,0-1.076-1H50.426c-5.345.006-9.676,4.036-9.682,9.01a1.041,1.041,0,0,0,1.076,1h2.152V12.6l-2.912,2.71a.967.967,0,0,0-.315.708v5.006H38.592V13.014a.93.93,0,0,0-.079-.361,1.014,1.014,0,0,0-.067-.113,1.1,1.1,0,0,0-.09-.151l-4.068-4.73V1a1.041,1.041,0,0,0-1.076-1H26.758a1.041,1.041,0,0,0-1.076,1V7.658l-4.068,4.73a1.1,1.1,0,0,0-.09.151,1.014,1.014,0,0,0-.067.113.93.93,0,0,0-.079.361v8.009h-4.3a1.041,1.041,0,0,0-1.076,1v4a1.041,1.041,0,0,0,1.076,1h2.282l4.182,30.161a1.053,1.053,0,0,0,1.067.873H49.931a6.657,6.657,0,0,0,4.8,2h1.685a8.109,8.109,0,0,0,3.4-.748,5.855,5.855,0,0,1,4.884,0,8.109,8.109,0,0,0,3.4.748H69.79a6.249,6.249,0,0,0,6.455-6.007V48.053A6.249,6.249,0,0,0,69.79,42.046ZM57.957,2h2.152V4H57.957Zm3.227,21.023v2H46.123v-2ZM42.972,8.009A7.391,7.391,0,0,1,50.426,2H55.8V4.525L51.124,8.009Zm7.454,2v2h-4.3v-2ZM42.9,16.432l2.6-2.417h5.564L55.8,18.434v2.589H42.9Zm-1.076,6.593h2.152v7.008a1,1,0,0,0,.595.9l6.455,3a1.239,1.239,0,0,1,.662.712,1.208,1.208,0,0,1-.108,1,1.3,1.3,0,0,1-1.685.525h0l-4.368-2.032a1.113,1.113,0,0,0-1.439.46.945.945,0,0,0-.109.437V45.05a2.081,2.081,0,0,1-2.152,2v-9.01H39.668v9.01H37.516v-9.01H35.365v9.01H33.213v-9.01H31.061v9.01a2.081,2.081,0,0,1-2.152-2V23.025ZM27.834,2h4.3V7.008h-4.3ZM27.274,9.01H32.7l2.582,3H24.693Zm-3.744,5.006H36.44v7.008H23.531ZM18.152,25.028v-2h8.606v2ZM48.274,48.053V54.06a5.613,5.613,0,0,0,.377,2h-23.1L21.526,27.03h5.232V45.05a4.162,4.162,0,0,0,4.3,4H41.819a4.162,4.162,0,0,0,4.3-4V36.659l2.81,1.307a3.55,3.55,0,0,0,4.592-1.449l.01-.02a3.037,3.037,0,0,0,.2-2.478,3.283,3.283,0,0,0-1.743-1.876l-5.866-2.729V27.03H57.809L55.726,42.046h-1A6.249,6.249,0,0,0,48.274,48.053ZM74.094,54.06a4.162,4.162,0,0,1-4.3,4H68.106a5.824,5.824,0,0,1-2.441-.537,8.166,8.166,0,0,0-6.81,0,5.824,5.824,0,0,1-2.441.537H54.729a4.162,4.162,0,0,1-4.3-4V52.518a6.7,6.7,0,0,0,4.3,1.542h1.685a8.109,8.109,0,0,0,3.4-.748,5.854,5.854,0,0,1,4.884,0,8.109,8.109,0,0,0,3.4.748H69.79a6.7,6.7,0,0,0,4.3-1.542Zm-4.3-2H68.106a5.824,5.824,0,0,1-2.441-.537,8.166,8.166,0,0,0-6.81,0,5.824,5.824,0,0,1-2.441.537H54.729a4.015,4.015,0,1,1,0-8.009h1.685a5.824,5.824,0,0,1,2.441.537,8.17,8.17,0,0,0,6.81,0,5.824,5.824,0,0,1,2.441-.537H69.79a4.015,4.015,0,1,1,0,8.009Z" transform="translate(-16)" fill="#5e6b79"/>
    </g>
  </g>
  <g id="Group_5" data-name="Group 5" transform="translate(50.529 45.481)">
    <g id="Group_4" data-name="Group 4" transform="translate(0 0)">
      <rect id="Rectangle_12" data-name="Rectangle 12" width="2.778" height="2.778" fill="#5e6b79"/>
    </g>
  </g>
  <g id="Group_7" data-name="Group 7" transform="translate(41.499 45.481)">
    <g id="Group_6" data-name="Group 6" transform="translate(0 0)">
      <rect id="Rectangle_13" data-name="Rectangle 13" width="2.778" height="2.778" fill="#5e6b79"/>
    </g>
  </g>
  <g id="Group_9" data-name="Group 9" transform="translate(37.332 46.349)">
    <g id="Group_8" data-name="Group 8" transform="translate(0 0)">
      <rect id="Rectangle_14" data-name="Rectangle 14" width="2.778" height="2.778" fill="#5e6b79"/>
    </g>
  </g>
  <g id="Group_11" data-name="Group 11" transform="translate(44.972 46.349)">
    <g id="Group_10" data-name="Group 10" transform="translate(0 0)">
      <rect id="Rectangle_15" data-name="Rectangle 15" width="2.778" height="2.778" fill="#5e6b79"/>
    </g>
  </g>
</svg>
