<svg xmlns="http://www.w3.org/2000/svg" width="60" height="60" viewBox="0 0 60 60">
  <g id="customer-support" transform="translate(-0.274 0)">
    <path id="Path_4" data-name="Path 4" d="M.445,5.7,4.537,12.86a1.022,1.022,0,0,0,.639.485l3.818.954L22.088,27.393l1.447-1.446-13.3-13.3a1.02,1.02,0,0,0-.475-.269l-3.668-.92-3.484-6.1L5.6,2.371l6.1,3.487.921,3.668a1.02,1.02,0,0,0,.269.476l13.3,13.3,1.446-1.447L14.54,8.761l-.954-3.816A1.025,1.025,0,0,0,13.1,4.3L5.939.213A1.023,1.023,0,0,0,4.712.377L.62,4.47A1.023,1.023,0,0,0,.445,5.7Zm0,0" transform="translate(-0.036 -0.071)" fill="#5e6b79"/>
    <path id="Path_5" data-name="Path 5" d="M197.933,175.166l-22.505,22.506-1.447-1.447,22.506-22.505Zm0,0" transform="translate(-155.696 -155.707)" fill="#5e6b79"/>
    <path id="Path_6" data-name="Path 6" d="M58.86,399.332a1.023,1.023,0,0,0-.877-.5H51.845a1.022,1.022,0,0,0-.877.5L47.9,404.446a1.023,1.023,0,0,0,0,1.054l3.069,5.115a1.023,1.023,0,0,0,.877.5h6.138a1.024,1.024,0,0,0,.877-.5l3.069-5.115a1.023,1.023,0,0,0,0-1.054ZM57.4,409.065h-4.98l-2.455-4.092,2.455-4.092H57.4l2.455,4.092Zm0,0" transform="translate(-42.365 -357.275)" fill="#5e6b79"/>
    <path id="Path_7" data-name="Path 7" d="M48.253,23.991A11.953,11.953,0,0,0,59.88,9.1,1,1,0,0,0,58.2,8.632L51.982,14.85,47.045,13.2,45.4,8.269l6.222-6.223A1,1,0,0,0,51.152.369,11.958,11.958,0,0,0,36.258,12a11.732,11.732,0,0,0,.243,2.342L14.61,36.228a11.793,11.793,0,0,0-2.342-.243A11.994,11.994,0,1,0,24.263,47.98a11.762,11.762,0,0,0-.243-2.342L29.261,40.4l2.292,2.292a1,1,0,0,0,1.414,0l.5-.5a1.121,1.121,0,0,1,1.587,1.583l0,0-.5.5a1,1,0,0,0,0,1.413L46.476,57.611A8.067,8.067,0,1,0,57.936,46.254l-.051-.052L45.961,34.279a1,1,0,0,0-1.413,0l-.5.5A1.121,1.121,0,0,1,42.461,33.2l0,0,.5-.5a1,1,0,0,0,0-1.413l-2.292-2.292,5.241-5.241a11.762,11.762,0,0,0,2.342.243Zm3.927,33.985a6.074,6.074,0,0,1-2.126-.388l7.807-7.807a6.062,6.062,0,0,1-5.681,8.195ZM40.857,32a3.119,3.119,0,0,0,4.4,4.392L56.472,47.616c.122.122.236.251.346.382l-8.546,8.546c-.131-.11-.26-.224-.382-.346L36.663,44.971a3.12,3.12,0,0,0-4.4-4.392l-1.6-1.6L39.257,30.4Zm4.036-10.053L22.217,44.614a1,1,0,0,0-.264.95A10.062,10.062,0,1,1,14.685,38.3a1.008,1.008,0,0,0,.95-.264L38.3,15.361a1,1,0,0,0,.263-.949A9.947,9.947,0,0,1,48.821,2.017L43.548,7.292a1,1,0,0,0-.242,1.022l2,6a1,1,0,0,0,.633.632l6,2a1,1,0,0,0,1.022-.241l5.273-5.273c.012.191.018.38.018.567a9.944,9.944,0,0,1-12.412,9.685,1,1,0,0,0-.95.263h.005Zm0,0" fill="#5e6b79"/>
    <path id="Path_8" data-name="Path 8" d="M394.566,392.854,393.12,394.3,382.89,384.072l1.446-1.447Zm0,0" transform="translate(-342.801 -342.811)" fill="#5e6b79"/>
  </g>
</svg>
