<svg xmlns="http://www.w3.org/2000/svg" width="61" height="58.998" viewBox="0 0 61 58.998">
  <g id="hairdresser" transform="translate(-2 -2)">
    <path id="Path_23" data-name="Path 23" d="M26.916,4.213c.855-.135,9.311-.135,10.164,0,5.479,1,9.147,5.057,10.9,12.066a86.748,86.748,0,0,1,2.042,15.784l2-.125a89.781,89.781,0,0,0-2.1-16.144C47.986,8.063,43.67,3.377,37.437,2.244c-.965-.176-9.91-.176-10.875,0a13.786,13.786,0,0,0-7.631,4.062l1.441,1.387a11.846,11.846,0,0,1,6.544-3.48Z" fill="#5e6b79"/>
    <path id="Path_24" data-name="Path 24" d="M59,52a3,3,0,0,0-3,3v1h2V55a1,1,0,0,1,2,0v.559a3.286,3.286,0,0,1-.665,1.978,1.439,1.439,0,0,1-.16.179c-.738.675-2.133,1.712-3.2,1.068-1.036-.626-1.41-3.372-1.634-5.014-.058-.42-.11-.805-.166-1.128L52.2,52.98c.052.305.1.666.155,1.061A16.306,16.306,0,0,0,53.516,58.8l-6.47-.381A6.432,6.432,0,0,1,41,52V41.974c2.793-3.313,4.092-8.124,5.22-12.349.412-1.539.8-2.994,1.236-4.311a1,1,0,0,0-.141-.9c-.813-1.119-8.017-10.829-13-10.829q-.083,0-.165,0a3.6,3.6,0,0,0-3.008,1.9c-2.777,4.628-14.35,8.63-14.466,8.67a1,1,0,0,0-.638,1.223c.26.9.512,1.861.772,2.85,1.224,4.643,2.731,10.346,6.188,14.02V52a6.431,6.431,0,0,1-6.047,6.413l-6.47.381a16.306,16.306,0,0,0,1.156-4.754c.055-.4.1-.756.155-1.06.7-4.067,1.236-8.192,1.594-12.259.2-2.286.343-4.614.479-6.866.255-4.188.518-8.52,1.174-12.7l-1.977-.311c-.67,4.274-.937,8.654-1.193,12.889-.137,2.239-.277,4.554-.476,6.813-.353,4.013-.881,8.082-1.572,12.1-.056.323-.108.708-.166,1.128-.224,1.642-.6,4.388-1.634,5.014-.6.365-1.384.235-2.323-.38a3.435,3.435,0,0,1-1.235-1.533l-.151-.349A3.849,3.849,0,0,1,4,55a1,1,0,0,1,2,0v1H8V55a3,3,0,0,0-6,0,5.793,5.793,0,0,0,.479,2.315l.151.349a5.4,5.4,0,0,0,1.976,2.411,5.008,5.008,0,0,0,2.452.9V61l.174-.01c.017,0,.037,0,.054,0a3.368,3.368,0,0,0,.436-.033l9.348-.55A8.43,8.43,0,0,0,25,52V43.969a12.038,12.038,0,0,0,7,2.037,11.4,11.4,0,0,0,7-2.147V52a8.432,8.432,0,0,0,7.93,8.409l9.284.546a3.478,3.478,0,0,0,.5.039c.026,0,.052,0,.078-.005l.149.009V60.98a6.062,6.062,0,0,0,3.582-1.788,3.405,3.405,0,0,0,.4-.439A5.311,5.311,0,0,0,62,55.559V55a3,3,0,0,0-3-3ZM32,44.007c-8.959,0-11.241-8.654-13.255-16.29-.179-.68-.354-1.346-.531-1.989C21.12,24.648,30.167,21,32.858,16.515a1.594,1.594,0,0,1,1.381-.931c2.889-.108,8.218,5.655,11.159,9.6-.39,1.231-.74,2.546-1.109,3.929-1.957,7.324-3.98,14.9-12.289,14.9Z" fill="#5e6b79"/>
    <path id="Path_25" data-name="Path 25" d="M3.465,12.879A4.981,4.981,0,0,0,7,14.341a4.969,4.969,0,0,0,.729-.07,4.983,4.983,0,0,0,1.392,4.264l1.172,1.172a1,1,0,0,0,1.414,0l1.172-1.172a4.98,4.98,0,0,0,1.392-4.264,5.11,5.11,0,0,0,.729.07,4.981,4.981,0,0,0,3.535-1.462l1.172-1.172a1,1,0,0,0,0-1.414L18.535,9.121a4.98,4.98,0,0,0-4.264-1.392,4.983,4.983,0,0,0-1.392-4.264L11.707,2.293a1,1,0,0,0-1.414,0L9.121,3.465A4.98,4.98,0,0,0,7.729,7.729,4.983,4.983,0,0,0,3.465,9.121L2.293,10.293a1,1,0,0,0,0,1.414Zm9.414-2.344a3.072,3.072,0,0,1,4.242,0l.465.465-.465.465a3.072,3.072,0,0,1-4.242,0L12.414,11ZM10.535,4.879,11,4.414l.465.465a3,3,0,0,1,0,4.242L11,9.586l-.465-.465a3,3,0,0,1,0-4.242Zm0,8L11,12.414l.465.465a3,3,0,0,1,0,4.242L11,17.586l-.465-.465a3,3,0,0,1,0-4.242ZM4.879,10.535a3.072,3.072,0,0,1,4.242,0L9.586,11l-.465.465a3.072,3.072,0,0,1-4.242,0L4.414,11Z" fill="#5e6b79"/>
    <path id="Path_26" data-name="Path 26" d="M62.707,40.293l-1.172-1.172a4.98,4.98,0,0,0-4.264-1.392,4.983,4.983,0,0,0-1.392-4.264l-1.172-1.172a1,1,0,0,0-1.414,0l-1.172,1.172a4.98,4.98,0,0,0-1.392,4.264,4.983,4.983,0,0,0-4.264,1.392l-1.172,1.172a1,1,0,0,0,0,1.414l1.172,1.172a4.784,4.784,0,0,0,4.264,1.392,4.983,4.983,0,0,0,1.392,4.264l1.172,1.172a1,1,0,0,0,1.414,0l1.172-1.172a4.98,4.98,0,0,0,1.392-4.264,5.11,5.11,0,0,0,.729.07,4.981,4.981,0,0,0,3.535-1.462l1.172-1.172A1,1,0,0,0,62.707,40.293ZM52.121,41.465a3.072,3.072,0,0,1-4.242,0L47.414,41l.465-.465a3.072,3.072,0,0,1,4.242,0l.465.465Zm2.344,5.656L54,47.586l-.465-.465a3,3,0,0,1,0-4.242L54,42.414l.465.465a3,3,0,0,1,0,4.242Zm0-8L54,39.586l-.465-.465a3,3,0,0,1,0-4.242L54,34.414l.465.465a3,3,0,0,1,0,4.242Zm5.656,2.344a3.072,3.072,0,0,1-4.242,0L55.414,41l.465-.465a3.072,3.072,0,0,1,4.242,0l.465.465Z" fill="#5e6b79"/>
    <path id="Path_27" data-name="Path 27" d="M52,2h2V4H52Z" fill="#5e6b79"/>
    <path id="Path_28" data-name="Path 28" d="M54,4h2V6H54Z" fill="#5e6b79"/>
    <path id="Path_29" data-name="Path 29" d="M50,4h2V6H50Z" fill="#5e6b79"/>
    <path id="Path_30" data-name="Path 30" d="M52,6h2V8H52Z" fill="#5e6b79"/>
    <path id="Path_31" data-name="Path 31" d="M4,25H6v2H4Z" fill="#5e6b79"/>
    <path id="Path_32" data-name="Path 32" d="M6,27H8v2H6Z" fill="#5e6b79"/>
    <path id="Path_33" data-name="Path 33" d="M2,27H4v2H2Z" fill="#5e6b79"/>
    <path id="Path_34" data-name="Path 34" d="M4,29H6v2H4Z" fill="#5e6b79"/>
    <path id="Path_35" data-name="Path 35" d="M58,12h2v2H58Z" fill="#5e6b79"/>
    <path id="Path_36" data-name="Path 36" d="M60,14h2v2H60Z" fill="#5e6b79"/>
    <path id="Path_37" data-name="Path 37" d="M56,14h2v2H56Z" fill="#5e6b79"/>
    <path id="Path_38" data-name="Path 38" d="M58,16h2v2H58Z" fill="#5e6b79"/>
  </g>
</svg>
