<svg xmlns="http://www.w3.org/2000/svg" width="63" height="59.999" viewBox="0 0 63 59.999">
  <g id="law" transform="translate(0.001 -12.193)">
    <g id="Group_54" data-name="Group 54" transform="translate(-0.001 12.193)">
      <g id="Group_53" data-name="Group 53" transform="translate(0 0)">
        <g id="Group_52" data-name="Group 52">
          <g id="Group_51" data-name="Group 51">
            <path id="Path_21" data-name="Path 21" d="M60.035,66.248h-.686a9.544,9.544,0,0,1-.8-1.515.923.923,0,1,0-1.705.706c.114.276.242.544.376.809h-36.2a2.953,2.953,0,0,0-.8.112,10.728,10.728,0,0,1-1.356-5.494c0-.4.018-.8.053-1.188H36.6a.923.923,0,0,0,0-1.846h-16.9l2.168-2.349H57.219a11.52,11.52,0,0,0-.888,2.349H44.2a.923.923,0,1,0,0,1.846H56.007c-.036.375-.057.754-.059,1.136a.923.923,0,0,0,.919.927h0a.923.923,0,0,0,.923-.919,9.875,9.875,0,0,1,1.552-5.338h.688a2.965,2.965,0,0,0,0-5.929H48.5l10.57-10.57a3.177,3.177,0,0,0,0-4.493l-.232-.232a3.176,3.176,0,0,0-4.33-.151l-1.634-1.634.556-.556A2.608,2.608,0,0,0,54,29.08l-.752-1.839a2.045,2.045,0,0,0-1.485-1.232L50.48,24.726a.923.923,0,1,0-1.305,1.305l.631.631L35.262,41.207,30.985,36.93,45.529,22.385l.566.566A.923.923,0,1,0,47.4,21.647l-1.218-1.218a2.046,2.046,0,0,0-1.232-1.485h0l-1.839-.752a2.608,2.608,0,0,0-2.837.571l-.556.556-1.634-1.634a3.176,3.176,0,0,0-.151-4.33l-.232-.232a3.177,3.177,0,0,0-4.493,0L21.723,24.608a3.177,3.177,0,0,0,0,4.493l.232.232a3.176,3.176,0,0,0,4.33.151l1.634,1.634-.556.556a2.608,2.608,0,0,0-.571,2.837l.752,1.839a2.045,2.045,0,0,0,1.464,1.227L24.379,43.1a3.153,3.153,0,0,0-4.165,4l-2.1,1.937a.923.923,0,0,0,1.252,1.356l1.939-1.79,2.286,2.286L6.408,69.5a2.63,2.63,0,1,1-3.717-3.717l13.48-12.444a.923.923,0,1,0-1.252-1.356L1.439,64.427a4.476,4.476,0,0,0,3.033,7.765h.093a4.438,4.438,0,0,0,3.2-1.439L13.3,64.76a10.636,10.636,0,0,0,1.484,3.164,2.149,2.149,0,0,0,1.75.9h1.555a2.96,2.96,0,0,0,2.938,3.355H60.035a2.965,2.965,0,1,0,0-5.929Zm1.119-13.73a1.12,1.12,0,0,1-1.119,1.119H23.564L25.1,51.976a3.154,3.154,0,0,0,3.148-.576H60.035a1.12,1.12,0,0,1,1.119,1.119ZM33.312,41.868l-5.344,4.48-2.125-2.125,4.48-5.344Zm-4.026,7.686a3.169,3.169,0,0,0-.192-1.741l5.52-4.627a2.045,2.045,0,0,0,1.227,1.464l1.839.752a2.608,2.608,0,0,0,2.837-.571l.556-.556,1.634,1.634a3.183,3.183,0,0,0-.367,3.647H29.286Zm27.3-14.38a1.323,1.323,0,0,1,.941.39l.232.232a1.331,1.331,0,0,1,0,1.883L46.278,49.164a1.331,1.331,0,0,1-1.883,0l-.232-.232a1.333,1.333,0,0,1,0-1.883L55.648,35.564A1.322,1.322,0,0,1,56.589,35.174Zm-3.395.233L44.006,44.6l-1.628-1.627,9.189-9.189Zm-16.723,7.2L51.206,27.873a.194.194,0,0,1,.141-.06.225.225,0,0,1,.044,0,.2.2,0,0,1,.149.123l.752,1.839a.766.766,0,0,1-.168.833L39.212,43.525a.766.766,0,0,1-.833.168l-1.839-.752a.2.2,0,0,1-.067-.334ZM24.2,28.419a1.322,1.322,0,0,1-.941-.39l-.232-.232a1.331,1.331,0,0,1,0-1.883L34.513,14.429a1.331,1.331,0,0,1,1.883,0l.232.232a1.331,1.331,0,0,1,0,1.883L25.143,28.029a1.324,1.324,0,0,1-.941.39Zm3.394-.233L36.785,19l1.628,1.628-9.189,9.189Zm1.071,4.794L41.579,20.068a.766.766,0,0,1,.834-.168l1.839.752a.2.2,0,0,1,.067.333L29.585,35.719a.2.2,0,0,1-.333-.067L28.5,33.813A.766.766,0,0,1,28.667,32.98Zm-6.8,13.028a1.305,1.305,0,0,1,2.228-.923l3.01,3.01a1.305,1.305,0,0,1-1.846,1.846l-3.01-3.01a1.3,1.3,0,0,1-.382-.923ZM16.283,66.854a9.31,9.31,0,0,1-1.478-3.729l2.212-2.4c0,.046,0,.091,0,.137a12.8,12.8,0,0,0,1.431,6.111H16.529A.3.3,0,0,1,16.283,66.854Zm43.751,3.477H21.022a1.119,1.119,0,0,1,0-2.238H60.035a1.119,1.119,0,1,1,0,2.238Z" transform="translate(0.001 -12.193)" fill="#5e6b79"/>
            <path id="Path_22" data-name="Path 22" d="M203.25,417.166a.923.923,0,0,0,0,1.846h21.5a.923.923,0,0,0,0-1.846Z" transform="translate(-177.431 -367.335)" fill="#5e6b79"/>
          </g>
        </g>
      </g>
    </g>
  </g>
</svg>
