<svg xmlns="http://www.w3.org/2000/svg" width="60" height="55" viewBox="0 0 60 55">
  <g id="pet" transform="translate(0.001 -33.135)">
    <g id="Group_50" data-name="Group 50" transform="translate(-0.001 33.135)">
      <g id="Group_49" data-name="Group 49" transform="translate(0 0)">
        <path id="Path_14" data-name="Path 14" d="M287.191,281.376a1.192,1.192,0,1,0,1.192,1.192A1.192,1.192,0,0,0,287.191,281.376Z" transform="translate(-252.507 -250.924)" fill="#5e6b79"/>
        <path id="Path_15" data-name="Path 15" d="M128.64,222.015a29.925,29.925,0,0,1-5.806-9.04,9.834,9.834,0,0,0-18.337,0,28.819,28.819,0,0,1-6.211,9.436l-.012.011a10.344,10.344,0,0,0-3.31,7.6,10.187,10.187,0,0,0,4.491,8.574,10.764,10.764,0,0,0,9.024,1.5,20.406,20.406,0,0,1,10.413.022,10.692,10.692,0,0,0,8.982-1.451,10.428,10.428,0,0,0,.765-16.655ZM126.6,236.681a8.427,8.427,0,0,1-7.078,1.144,22.655,22.655,0,0,0-11.652-.025,8.5,8.5,0,0,1-7.123-1.181,7.807,7.807,0,0,1-3.458-6.592,7.929,7.929,0,0,1,2.533-5.824,30.675,30.675,0,0,0,6.811-10.284l.008-.019a7.537,7.537,0,0,1,14.059,0l.008.019a32.3,32.3,0,0,0,6.35,9.838,1.207,1.207,0,0,0,.1.095,8.006,8.006,0,0,1-.563,12.83Z" transform="translate(-83.647 -185.536)" fill="#5e6b79"/>
        <path id="Path_16" data-name="Path 16" d="M307.049,317.183a1.192,1.192,0,1,0-2,1.3,34.06,34.06,0,0,0,4.4,5.5,1.192,1.192,0,1,0,1.68-1.692A31.6,31.6,0,0,1,307.049,317.183Z" transform="translate(-269.207 -282.126)" fill="#5e6b79"/>
        <path id="Path_17" data-name="Path 17" d="M130.1,37.659a12.109,12.109,0,0,0,1.31-7.293c-.6-5.126-4.14-9.421-8.09-8.946a6.088,6.088,0,0,0-4.466,3.3,12.116,12.116,0,0,0-1.31,7.294C118.53,40.381,126.324,44.253,130.1,37.659ZM120.921,25.9a3.66,3.66,0,0,1,2.982-2.131c2.346,0,4.7,3.149,5.139,6.877a9.689,9.689,0,0,1-1.012,5.829c-2.747,4.8-7.472.753-8.121-4.745A9.7,9.7,0,0,1,120.921,25.9Z" transform="translate(-103.755 -21.383)" fill="#5e6b79"/>
        <path id="Path_18" data-name="Path 18" d="M15.231,175.328a10.815,10.815,0,0,0-1.18-6.615,10.815,10.815,0,0,0-4.713-4.791,6.461,6.461,0,0,0-5.918-.146,6.462,6.462,0,0,0-3.3,4.911A10.816,10.816,0,0,0,1.3,175.3a10.817,10.817,0,0,0,4.713,4.79,6.479,6.479,0,0,0,5.917.148A6.462,6.462,0,0,0,15.231,175.328Zm-4.4,2.794a4.148,4.148,0,0,1-3.774-.17,8.426,8.426,0,0,1-3.645-3.745,8.424,8.424,0,0,1-.945-5.139,4.148,4.148,0,0,1,2.045-3.176h0a4.174,4.174,0,0,1,3.773.169,8.425,8.425,0,0,1,3.645,3.745,8.424,8.424,0,0,1,.945,5.139A4.148,4.148,0,0,1,10.834,178.122Z" transform="translate(0.001 -146.643)" fill="#5e6b79"/>
        <path id="Path_19" data-name="Path 19" d="M283.308,41.2c3.613,0,6.911-3.945,7.508-8.981.635-5.365-2.068-10.624-6.362-10.624-3.614,0-6.911,3.945-7.507,8.981C276.312,35.948,279.023,41.2,283.308,41.2Zm-3.994-10.344c.441-3.728,2.8-6.877,5.14-6.877a2.256,2.256,0,0,1,.291.016,4.021,4.021,0,0,1,2.834,2.386,9.953,9.953,0,0,1,.87,5.558c-.458,3.862-3.018,7.174-5.432,6.861l-.013,0a3.961,3.961,0,0,1-2.82-2.384A9.958,9.958,0,0,1,279.315,30.854Z" transform="translate(-244.577 -21.568)" fill="#5e6b79"/>
        <path id="Path_20" data-name="Path 20" d="M398.443,168.738c-.754-4.642-4.95-6.861-9.221-4.765a11.356,11.356,0,0,0-5.893,11.406c.763,4.7,5,6.834,9.221,4.764A11.354,11.354,0,0,0,398.443,168.738ZM391.5,178a4.149,4.149,0,0,1-3.774.17h0A4.149,4.149,0,0,1,385.682,175a8.983,8.983,0,0,1,4.59-8.884c2.8-1.376,5.317-.08,5.818,3.007A8.981,8.981,0,0,1,391.5,178Z" transform="translate(-338.561 -146.69)" fill="#5e6b79"/>
      </g>
    </g>
  </g>
</svg>
