<svg xmlns="http://www.w3.org/2000/svg" width="60" height="57.737" viewBox="0 0 60 57.737">
  <g id="picnic" transform="translate(0 -8.299)">
    <g id="Group_55" data-name="Group 55" transform="translate(19.27 52.266)">
      <path id="Path_40" data-name="Path 40" d="M168.488,387.293h-3.261a.874.874,0,1,1,0-1.748h3.261a.874.874,0,1,1,0,1.748Z" transform="translate(-164.353 -385.545)" fill="#5e6b79"/>
    </g>
    <g id="Group_56" data-name="Group 56" transform="translate(11.297 52.266)">
      <path id="Path_41" data-name="Path 41" d="M100.485,387.293H97.224a.874.874,0,1,1,0-1.748h3.261a.874.874,0,1,1,0,1.748Z" transform="translate(-96.35 -385.545)" fill="#5e6b79"/>
    </g>
    <g id="Group_57" data-name="Group 57" transform="translate(0 8.299)">
      <path id="Path_42" data-name="Path 42" d="M236.5,336.788h-3.264a.874.874,0,1,0,0,1.748H236.5a.874.874,0,1,0,0-1.748Z" transform="translate(-205.114 -298.504)" fill="#5e6b79"/>
      <path id="Path_43" data-name="Path 43" d="M236.5,385.545h-3.264a.874.874,0,1,0,0,1.748H236.5a.874.874,0,1,0,0-1.748Z" transform="translate(-205.114 -341.578)" fill="#5e6b79"/>
      <path id="Path_44" data-name="Path 44" d="M304.523,336.788h-3.261a.874.874,0,0,0,0,1.748h3.261a.874.874,0,1,0,0-1.748Z" transform="translate(-265.169 -298.504)" fill="#5e6b79"/>
      <path id="Path_45" data-name="Path 45" d="M304.523,385.545h-3.261a.874.874,0,0,0,0,1.748h3.261a.874.874,0,1,0,0-1.748Z" transform="translate(-265.169 -341.578)" fill="#5e6b79"/>
      <path id="Path_46" data-name="Path 46" d="M236.5,434.3h-3.264a.874.874,0,1,0,0,1.748H236.5a.874.874,0,1,0,0-1.748Z" transform="translate(-205.114 -384.654)" fill="#5e6b79"/>
      <path id="Path_47" data-name="Path 47" d="M304.523,434.3h-3.261a.874.874,0,0,0,0,1.748h3.261a.874.874,0,1,0,0-1.748Z" transform="translate(-265.169 -384.654)" fill="#5e6b79"/>
      <path id="Path_48" data-name="Path 48" d="M168.488,434.3h-3.261a.874.874,0,1,0,0,1.748h3.261a.874.874,0,1,0,0-1.748Z" transform="translate(-145.083 -384.654)" fill="#5e6b79"/>
      <path id="Path_49" data-name="Path 49" d="M369.266,336.788a.874.874,0,1,0,0,1.748h3.264a.874.874,0,0,0,0-1.748Z" transform="translate(-325.199 -298.504)" fill="#5e6b79"/>
      <path id="Path_50" data-name="Path 50" d="M372.53,385.545h-3.264a.874.874,0,1,0,0,1.748h3.264a.874.874,0,0,0,0-1.748Z" transform="translate(-325.199 -341.578)" fill="#5e6b79"/>
      <path id="Path_51" data-name="Path 51" d="M372.53,434.3h-3.264a.874.874,0,1,0,0,1.748h3.264a.874.874,0,0,0,0-1.748Z" transform="translate(-325.199 -384.654)" fill="#5e6b79"/>
      <path id="Path_52" data-name="Path 52" d="M100.485,434.3H97.224a.874.874,0,1,0,0,1.748h3.261a.874.874,0,1,0,0-1.748Z" transform="translate(-85.053 -384.654)" fill="#5e6b79"/>
      <path id="Path_53" data-name="Path 53" d="M168.491,385.545h-3.264a.874.874,0,1,0,0,1.748h3.264a.874.874,0,1,0,0-1.748Z" transform="translate(-145.083 -341.578)" fill="#5e6b79"/>
      <path id="Path_54" data-name="Path 54" d="M100.485,385.545H97.224a.874.874,0,1,0,0,1.748h3.261a.874.874,0,1,0,0-1.748Z" transform="translate(-85.053 -341.578)" fill="#5e6b79"/>
      <path id="Path_55" data-name="Path 55" d="M114.944,150.513l3.789-1.791a.874.874,0,0,0-.747-1.581l-3.789,1.791a.874.874,0,1,0,.747,1.581Z" transform="translate(-100.365 -130.886)" fill="#5e6b79"/>
      <path id="Path_56" data-name="Path 56" d="M127.812,189.759a.873.873,0,0,0,1.164.417l5.114-2.418a.874.874,0,0,0-.747-1.58l-5.114,2.418A.874.874,0,0,0,127.812,189.759Z" transform="translate(-112.749 -165.372)" fill="#5e6b79"/>
      <path id="Path_57" data-name="Path 57" d="M57.52,34.931H52.907a7.677,7.677,0,0,0-.139-3.04c-.287-1.435-.557-2.79,1.068-6.052l1.853-3.72a1.291,1.291,0,0,0,.279.031,1.311,1.311,0,0,0,.417-.068,1.285,1.285,0,0,0,.749-.65L58.4,18.9a1.291,1.291,0,0,0-.591-1.731l-5.647-2.785a1.3,1.3,0,0,0-1.743.586L49.157,17.5a1.274,1.274,0,0,0-.068.988,1.288,1.288,0,0,0,.394.576l-1.855,3.718h0c-1.624,3.261-2.872,3.867-4.194,4.509a8.37,8.37,0,0,0-2.073,1.29,7.223,7.223,0,0,0-1.339-1.573c1.989-1.294,3.088-3.693,3.063-6.812a.872.872,0,0,0-.294-.646.883.883,0,0,0-.679-.216c-4.128.443-6.467,2.365-7.127,5.866a7.359,7.359,0,0,0-1.975.329V11.958a3.681,3.681,0,0,0-7.362,0v5.147a.879.879,0,0,0,1.758,0V11.958a1.923,1.923,0,0,1,3.846,0V34.931H27.406v-13.7a.879.879,0,0,0-1.758,0v7.986a31.3,31.3,0,0,0-4.994-8.35,13.029,13.029,0,0,0-4.714-3.806,5.3,5.3,0,0,0-4.42-.122,5.25,5.25,0,0,0-2.709,3.475,12.9,12.9,0,0,0-.032,6.037,31.012,31.012,0,0,0,2.968,8.479H2.477A2.473,2.473,0,0,0,0,37.394v2.759a2.474,2.474,0,0,0,2.477,2.467H2.77V56.5a9.57,9.57,0,0,0,9.585,9.533H47.644A9.569,9.569,0,0,0,57.226,56.5V42.619h.294A2.476,2.476,0,0,0,60,40.153V37.394a2.474,2.474,0,0,0-2.48-2.463ZM51.79,16.152l4.828,2.381-.855,1.714-4.829-2.379ZM40.8,32.341a10.244,10.244,0,0,1,1.02-1.678,5.759,5.759,0,0,1,2.386-1.8c1.457-.707,3.109-1.509,5-5.3l1.838-3.684L54.1,21.379l-1.836,3.684c-1.891,3.794-1.533,5.587-1.217,7.169a5.786,5.786,0,0,1,.074,2.7H39.509Zm.491-11.123c-.206,2.339-1.222,3.976-2.922,4.692a7.276,7.276,0,0,0-1.624-.552C37.232,23.006,38.643,21.72,41.289,21.218Zm-8.279,6.17a5.583,5.583,0,0,1,3.626-.255,7.724,7.724,0,0,1,1.293.525,5.485,5.485,0,0,1,2.212,2.329,13.031,13.031,0,0,0-.918,1.579l-1.675,3.366H33.01ZM10.5,26.115c-.754-3.817-.077-6.727,1.768-7.595s4.538.458,7.026,3.46a29.952,29.952,0,0,1,6.272,12.951H13.744A29.292,29.292,0,0,1,10.5,26.115ZM10.5,36.679H41.2L10.5,49.566ZM2.477,40.871a.72.72,0,0,1-.719-.718V37.394a.718.718,0,0,1,.719-.715H8.74v4.192Zm55.766-.718a.721.721,0,0,1-.722.718H48.514a.874.874,0,1,0,0,1.748h6.954V56.5a7.814,7.814,0,0,1-7.824,7.785H12.356A7.815,7.815,0,0,1,4.528,56.5V42.619H8.74v8.264a.873.873,0,0,0,.393.728.883.883,0,0,0,.828.077l21.611-9.069H44.455a.874.874,0,1,0,0-1.748H35.737l9.989-4.192H57.52a.719.719,0,0,1,.722.715Z" transform="translate(0 -8.299)" fill="#5e6b79"/>
    </g>
  </g>
</svg>
