<svg xmlns="http://www.w3.org/2000/svg" width="42" height="34" viewBox="0 0 42 34"><g transform="translate(-138 -708)"><g transform="translate(79 705.962)"><g transform="translate(70 0)"><g transform="translate(0 2.038)"><path d="M20.011,17.191a.784.784,0,0,0-1.534.319.819.819,0,0,1-.166.686.8.8,0,0,1-.627.3H2.379a.8.8,0,0,1-.627-.3.819.819,0,0,1-.166-.686,8.658,8.658,0,0,1,8.238-6.856q.1,0,.208,0t.209,0A8.621,8.621,0,0,1,17.2,14.48a.784.784,0,1,0,1.3-.873,10.193,10.193,0,0,0-5.282-4.013,5.329,5.329,0,1,0-6.379,0A10.193,10.193,0,0,0,.051,17.191a2.381,2.381,0,0,0,2.327,2.871H17.684a2.381,2.381,0,0,0,2.327-2.871ZM6.27,5.329a3.762,3.762,0,1,1,3.952,3.757l-.19,0-.19,0A3.766,3.766,0,0,1,6.27,5.329Z" transform="translate(0)" fill="#fff"/></g></g></g><text transform="translate(159 740)" fill="#fff" font-size="9" font-family="Montserrat-SemiBold, Montserrat" font-weight="600"><tspan x="-20.002" y="0">Giriş Yap</tspan></text></g></svg>