<svg xmlns="http://www.w3.org/2000/svg" width="28" height="34" viewBox="0 0 28 34"><g transform="translate(-267 -708)"><g transform="translate(271 708)"><g transform="translate(0)"><path d="M17.162,0H2.9a2.9,2.9,0,0,0,0,5.8H17.162a2.9,2.9,0,0,0,0-5.8Zm0,4.232H2.9a1.332,1.332,0,0,1,0-2.664H17.162a1.332,1.332,0,0,1,0,2.664Z" fill="#fff"/></g><g transform="translate(0 7.131)"><path d="M17.162,182H2.9a2.9,2.9,0,0,0,0,5.8H17.162a2.9,2.9,0,0,0,0-5.8Zm0,4.232H2.9a1.332,1.332,0,0,1,0-2.664H17.162a1.332,1.332,0,0,1,0,2.664Z" transform="translate(0 -182)" fill="#fff"/></g><g transform="translate(0 14.263)"><path d="M17.162,364H2.9a2.9,2.9,0,0,0,0,5.8H13.244a.784.784,0,1,0,0-1.567H2.9a1.332,1.332,0,0,1,0-2.664H17.162a1.332,1.332,0,0,1,0,2.664.784.784,0,1,0,0,1.567,2.9,2.9,0,0,0,0-5.8Z" transform="translate(0 -364)" fill="#fff"/></g></g><text transform="translate(281 740)" fill="#fff" font-size="9" font-family="Montserrat-SemiBold, Montserrat" font-weight="600"><tspan x="-13.243" y="0">Menü</tspan></text></g></svg>