<svg xmlns="http://www.w3.org/2000/svg" width="52" height="34" viewBox="0 0 52 34"><g transform="translate(-193 -708)"><g transform="translate(209 708)"><g transform="translate(0)"><path d="M9.594,18.461H2.789a.783.783,0,0,1-.745-1.022,6.035,6.035,0,0,1,5.734-4.083,5.851,5.851,0,0,1,3.363,1.055.782.782,0,1,0,.895-1.283,7.433,7.433,0,0,0-1.56-.833,3.982,3.982,0,0,0,1.3-2.627,5.889,5.889,0,0,1,7.466-.61.782.782,0,1,0,.895-1.283,7.433,7.433,0,0,0-1.56-.833A3.989,3.989,0,1,0,13.2,6.932q-.164.063-.325.134a7.427,7.427,0,0,0-1.378.791,3.989,3.989,0,1,0-6.4,4.422,7.523,7.523,0,0,0-4.542,4.68,2.347,2.347,0,0,0,2.234,3.066H9.594a.782.782,0,0,0,0-1.565Zm6.3-16.9a2.425,2.425,0,1,1-2.425,2.425A2.428,2.428,0,0,1,15.891,1.564ZM7.8,6.918A2.425,2.425,0,1,1,5.37,9.343,2.428,2.428,0,0,1,7.8,6.918Z" transform="translate(-0.44)" fill="#fff"/><path d="M272.467,322.5a.782.782,0,0,0-1.091.181l-3.856,5.386a.447.447,0,0,1-.643.033l-2.5-2.4a.782.782,0,0,0-1.084,1.128l2.5,2.4a2.017,2.017,0,0,0,1.388.554q.066,0,.133,0a2.017,2.017,0,0,0,1.434-.747l.026-.035,3.871-5.408A.782.782,0,0,0,272.467,322.5Z" transform="translate(-252.767 -309.719)" fill="#fff"/></g></g><text transform="translate(219 740)" fill="#fff" font-size="9" font-family="Montserrat-SemiBold, Montserrat" font-weight="600"><tspan x="-25.771" y="0">Hizmet Ver</tspan></text></g></svg>