<svg xmlns="http://www.w3.org/2000/svg" width="60" height="32.699" viewBox="0 0 60 32.699"><g transform="translate(-129 -709.301)"><text transform="translate(159 740)" fill="#fff" font-size="9" font-family="Montserrat-SemiBold, Montserrat" font-weight="600"><tspan x="-29.286" y="0">Nasıl Çalışır?</tspan></text><g transform="translate(147 709.301)"><path d="M23.447,73.969a3.621,3.621,0,0,0-2.6-2.485c-1.8-.469-8.159-.483-8.879-.483s-7.079.013-8.87.463l-.01,0a3.7,3.7,0,0,0-2.6,2.5v0a29.094,29.094,0,0,0,0,10.59,3.622,3.622,0,0,0,2.6,2.486c1.812.468,8.159.482,8.877.482s7.079-.013,8.87-.463h.005a3.622,3.622,0,0,0,2.6-2.486.89.89,0,0,0-.659-1.1.94.94,0,0,0-1.146.63,1.786,1.786,0,0,1-1.282,1.225,65.727,65.727,0,0,1-8.392.4,63.185,63.185,0,0,1-8.39-.42A1.785,1.785,0,0,1,2.293,84.1a25.848,25.848,0,0,1-.423-4.835,24.853,24.853,0,0,1,.423-4.834,1.835,1.835,0,0,1,1.284-1.241,65.843,65.843,0,0,1,8.39-.4,63.009,63.009,0,0,1,8.39.42,1.788,1.788,0,0,1,1.286,1.229,23.581,23.581,0,0,1,.421,4.846s0,.221-.007.568a.913.913,0,0,0,.916.911h.019a.916.916,0,0,0,.934-.876c.007-.349.008-.573.008-.6A25.577,25.577,0,0,0,23.447,73.969Z" transform="translate(0 -71.001)" fill="#fff"/><path d="M189.827,166.725A1.883,1.883,0,0,0,187,168.358v4.8a1.879,1.879,0,0,0,2.827,1.633l4.139-2.4a1.889,1.889,0,0,0,0-3.266Zm-.9,6.362v-4.654l4.011,2.327Z" transform="translate(-178.387 -162.515)" fill="#fff"/></g></g></svg>