<svg xmlns="http://www.w3.org/2000/svg" width="36" height="36" viewBox="0 0 36 36"><g transform="translate(-310 -762)"><g transform="translate(219 54)"><rect width="36" height="36" rx="10" transform="translate(91 708)" fill="#fff"/></g><g transform="translate(318 770)"><g transform="translate(0)"><path d="M17.162,0H2.9a2.9,2.9,0,0,0,0,5.8H17.162a2.9,2.9,0,0,0,0-5.8Zm0,4.232H2.9a1.332,1.332,0,0,1,0-2.664H17.162a1.332,1.332,0,0,1,0,2.664Z" fill="#ff6000"/></g><g transform="translate(0 7.131)"><path d="M17.162,182H2.9a2.9,2.9,0,0,0,0,5.8H17.162a2.9,2.9,0,0,0,0-5.8Zm0,4.232H2.9a1.332,1.332,0,0,1,0-2.664H17.162a1.332,1.332,0,0,1,0,2.664Z" transform="translate(0 -182)" fill="#ff6000"/></g><g transform="translate(0 14.263)"><path d="M17.162,364H2.9a2.9,2.9,0,0,0,0,5.8H13.244a.784.784,0,1,0,0-1.567H2.9a1.332,1.332,0,0,1,0-2.664H17.162a1.332,1.332,0,0,1,0,2.664.784.784,0,1,0,0,1.567,2.9,2.9,0,0,0,0-5.8Z" transform="translate(0 -364)" fill="#ff6000"/></g></g></g></svg>