<svg xmlns="http://www.w3.org/2000/svg" width="36" height="36" viewBox="0 0 36 36"><g transform="translate(-91 -708)"><rect width="36" height="36" rx="10" transform="translate(91 708)" fill="#fff"/><g transform="translate(99 716)"><path d="M19.834,19.344l-8.165-8.219-.032-.031A2.349,2.349,0,0,0,8.5,11.088l-.032.031L.23,19.342a.784.784,0,0,0,1.107,1.109l.622-.621V26.6a3.138,3.138,0,0,0,3.135,3.135H7.915a.784.784,0,0,0,.784-.784V22.561h2.743v6.387a.784.784,0,0,0,.784.784h2.743A3.138,3.138,0,0,0,18.1,26.6a.784.784,0,1,0-1.567,0,1.569,1.569,0,0,1-1.567,1.567H13.009V21.778a.784.784,0,0,0-.784-.784H7.915a.784.784,0,0,0-.784.784v6.387H5.094A1.569,1.569,0,0,1,3.527,26.6V18.29q0-.012,0-.023l6.032-6.021a.783.783,0,0,1,1.017,0l5.96,6v4.431a.784.784,0,1,0,1.567,0V19.825l.62.624a.784.784,0,0,0,1.112-1.1Z" transform="translate(0 -10.492)" fill="#ff6000"/></g></g></svg>