<svg xmlns="http://www.w3.org/2000/svg" width="36" height="36" viewBox="0 0 36 36"><g transform="translate(-123 -762)"><g transform="translate(32 54)"><rect width="36" height="36" rx="10" transform="translate(91 708)" fill="#fff"/></g><g transform="translate(61 767.962)"><g transform="translate(70 0)"><g transform="translate(0 2.038)"><path d="M20.011,17.191a.784.784,0,0,0-1.534.319.819.819,0,0,1-.166.686.8.8,0,0,1-.627.3H2.379a.8.8,0,0,1-.627-.3.819.819,0,0,1-.166-.686,8.658,8.658,0,0,1,8.238-6.856q.1,0,.208,0t.209,0A8.621,8.621,0,0,1,17.2,14.48a.784.784,0,1,0,1.3-.873,10.193,10.193,0,0,0-5.282-4.013,5.329,5.329,0,1,0-6.379,0A10.193,10.193,0,0,0,.051,17.191a2.381,2.381,0,0,0,2.327,2.871H17.684a2.381,2.381,0,0,0,2.327-2.871ZM6.27,5.329a3.762,3.762,0,1,1,3.952,3.757l-.19,0-.19,0A3.766,3.766,0,0,1,6.27,5.329Z" transform="translate(0)" fill="#ff6000"/></g></g></g></g></svg>